<?xml version="1.0" encoding="UTF-8" standalone="no"?>
<svg
   xmlns:dc="http://purl.org/dc/elements/1.1/"
   xmlns:cc="http://creativecommons.org/ns#"
   xmlns:rdf="http://www.w3.org/1999/02/22-rdf-syntax-ns#"
   xmlns:svg="http://www.w3.org/2000/svg"
   xmlns="http://www.w3.org/2000/svg"
   xmlns:sodipodi="http://sodipodi.sourceforge.net/DTD/sodipodi-0.dtd"
   xmlns:inkscape="http://www.inkscape.org/namespaces/inkscape"
   version="1.0"
   width="564.000000pt"
   height="586.000000pt"
   viewBox="0 0 564.000000 586.000000"
   preserveAspectRatio="xMidYMid meet"
   id="svg18"
   sodipodi:docname="movies.svg"
   inkscape:version="1.0.1 (1.0.1+r73)">
  <metadata
     id="metadata24">
    <rdf:RDF>
      <cc:Work
         rdf:about="">
        <dc:format>image/svg+xml</dc:format>
        <dc:type
           rdf:resource="http://purl.org/dc/dcmitype/StillImage" />
        <dc:title></dc:title>
      </cc:Work>
    </rdf:RDF>
  </metadata>
  <defs
     id="defs22" />
  <sodipodi:namedview
     pagecolor="#ffffff"
     bordercolor="#666666"
     borderopacity="1"
     objecttolerance="10"
     gridtolerance="10"
     guidetolerance="10"
     inkscape:pageopacity="0"
     inkscape:pageshadow="2"
     inkscape:window-width="1853"
     inkscape:window-height="1025"
     id="namedview20"
     showgrid="false"
     inkscape:zoom="1.0381621"
     inkscape:cx="192.02103"
     inkscape:cy="390.66667"
     inkscape:window-x="67"
     inkscape:window-y="27"
     inkscape:window-maximized="1"
     inkscape:current-layer="g16" />
  <g
     transform="translate(0.000000,586.000000) scale(0.100000,-0.100000)"
     fill="#000000"
     stroke="none"
     id="g16">
    <path
       d="M490 1745 l0 -345 23 0 24 0 6 227 c4 124 7 267 7 317 0 54 4 86 9 81 5 -6 56 -127 114 -270 160 -396 146 -365 177 -365 24 0 31 8 58 73 17 39 76 180 132 312 56 132 106 245 112 250 7 7 8 -92 3 -312 l-7 -323 31 0 31 0 2 278 c2 152 3 309 3 347 l0 70 -45 3 -46 3 -133 -301 c-74 -165 -137 -300 -141 -300 -4 0 -64 135 -135 300 l-128 300 -49 0 -48 0 0 -345z"
       id="path2"
       style="fill:#f748b0;fill-opacity:1" />
    <path
       d="M3735 2079 c-75 -28 -134 -104 -135 -172 0 -40 24 -93 57 -123 37 -34 79 -55 188 -93 100 -36 121 -51 142 -99 39 -93 -70 -184 -198 -167 -67 9 -111 41 -129 93 -13 38 -18 42 -47 42 -31 0 -33 -2 -27 -27 30 -123 128 -181 275 -162 132 16 190 68 197 173 7 111 -35 155 -210 216 -105 36 -142 59 -163 100 -47 91 23 170 151 170 77 0 123 -23 142 -72 13 -32 20 -38 45 -38 28 0 29 2 23 32 -9 45 -30 74 -77 105 -34 22 -53 27 -122 30 -45 1 -95 -2 -112 -8z"
       id="path4"
       style="fill:#f748b0;fill-opacity:1" />
    <path
       d="m 2085,2063 c 4,-10 35,-97 70,-193 34,-96 89,-246 120,-332 l 58,-158 h 37 37 l 126,344 c 20.4817,55.3006 39.8504,107.9472 57.004,154.8336 41.472,113.3567 69.996,193.0442 69.996,195.1664 0,3 -13,6 -29,6 -34,0 -20,31 -151,-339 -55,-157 -102,-287 -105,-289 -5,-5 -6,-4 -69,178 -26,74 -63,180 -83,235 -82,236 -72,215 -110,215 -29,0 -34,-3 -28,-17 z"
       id="path6"
       sodipodi:nodetypes="cccccccsssccccsc"
       style="fill:#f748b0;fill-opacity:1" />
    <path
       d="M2837 2074 c-4 -4 -7 -164 -7 -356 l0 -348 29 0 29 0 7 333 c4 183 6 341 4 352 -4 20 -47 33 -62 19z"
       id="path8"
       style="fill:#f748b0;fill-opacity:1" />
    <path
       d="M3068 1733 c-2 -186 -2 -344 0 -350 3 -10 56 -13 219 -13 l214 0 -3 28 -3 27 -182 3 -183 2 0 135 0 135 170 0 170 0 0 30 0 30 -170 0 -170 0 0 125 0 125 175 0 175 0 0 30 0 30 -204 0 -204 0 -4 -337z"
       id="path10"
       style="fill:#f748b0;fill-opacity:1" />
    <path
       d="M1631 2050 c-149 -31 -270 -160 -291 -309 -20 -141 43 -285 156 -360 94 -62 51 -59 1094 -66 525 -3 1342 -10 1815 -15 1269 -14 1235 -14 1235 10 0 19 -7 20 -182 20 -203 0 -1933 16 -2573 25 -225 2 -540 5 -698 5 l-288 0 59 55 c84 78 116 151 116 265 0 108 -26 179 -94 253 -85 93 -230 141 -349 117z m119 -70 c11 -11 20 -31 20 -45 0 -14 -9 -34 -20 -45 -11 -11 -31 -20 -45 -20 -31 0 -65 33 -65 62 0 29 38 68 67 68 13 0 32 -9 43 -20z m-216 -173 c19 -26 19 -30 5 -55 -34 -61 -119 -47 -119 20 0 69 72 91 114 35z m441 8 c28 -27 30 -37 14 -68 -15 -28 -28 -37 -58 -37 -57 0 -85 82 -39 114 32 22 55 20 83 -9z m-204 -64 c62 -62 20 -161 -68 -161 -49 0 -93 45 -93 95 0 27 8 44 29 66 22 21 39 29 66 29 27 0 44 -8 66 -29z m-181 -201 c11 -11 20 -31 20 -45 0 -14 -9 -34 -20 -45 -11 -11 -31 -20 -45 -20 -14 0 -34 9 -45 20 -11 11 -20 31 -20 45 0 14 9 34 20 45 11 11 31 20 45 20 14 0 34 -9 45 -20z m305 8 c55 -25 39 -110 -22 -116 -65 -6 -97 67 -47 107 31 24 35 25 69 9z"
       id="path12"
       style="fill:#365de3;fill-opacity:1" />
    <path
       d="M152 3 c82 -2 214 -2 295 0 82 1 15 3 -147 3 -162 0 -229 -2 -148 -3z"
       id="path14" />
  </g>
</svg>
